<svg width="136" height="23" viewBox="0 0 136 23" fill="none" xmlns="http://www.w3.org/2000/svg">
<path d="M7.75146 2.22799C5.77546 2.90399 3.98146 4.17799 2.73346 5.86799C1.48546 7.53199 0.731464 9.61199 0.679464 11.692C0.575464 14.24 1.51146 16.814 3.22746 18.66C4.96946 20.532 7.51746 21.624 10.0655 21.442C11.3395 21.364 12.5875 20.974 13.6535 20.272C14.7195 19.57 15.6035 18.608 16.1755 17.438C16.5655 16.606 16.7995 15.696 16.8515 14.76H16.3575C15.8635 15.774 15.1095 16.658 14.1735 17.308C13.3155 17.932 12.3015 18.322 11.2355 18.478C11.2355 13.824 11.2355 9.16999 11.2355 4.51599C11.3655 4.56799 11.4955 4.64599 11.6255 4.72399C12.5355 5.21799 13.4715 5.65999 14.4075 6.04999L17.5015 2.82599L17.2935 2.56599L16.4615 3.24199C15.8895 3.05999 15.2915 2.82599 14.7455 2.56599C13.8095 2.14999 12.8995 1.62999 12.0675 1.00599L5.20346 5.21799C5.87946 4.09999 6.86746 3.18999 8.01146 2.59199L7.75146 2.22799ZM4.55346 14.526C4.37146 14.084 4.21546 13.59 4.11146 13.122C3.85146 11.952 3.79946 10.756 3.90346 9.58599C3.98146 8.51999 4.18946 7.45399 4.57946 6.46599L5.98346 5.60799C5.98346 8.38999 5.98346 11.146 5.98346 13.928L4.55346 14.526ZM4.83946 15.176L9.33747 13.278V3.55399L9.54546 3.44999C9.85746 3.65799 10.1695 3.86599 10.4815 4.07399C10.4815 8.88399 10.4815 13.72 10.4815 18.53C9.64947 18.556 8.81746 18.426 8.03746 18.088C7.07546 17.724 6.24346 17.1 5.59346 16.294C5.30746 15.956 5.04746 15.566 4.83946 15.176Z" fill="#112233"/>
<path d="M28.9947 18.14L27.8767 18.894L26.6287 17.646V11.094L27.9807 10.002L27.5387 9.42999L26.4727 10.288L22.6507 7.81799L19.7907 9.29999C19.4787 9.45599 19.1667 9.63799 18.9067 9.84599C18.6727 10.08 18.4647 10.314 18.3347 10.6C18.2047 10.912 18.1267 11.224 18.1527 11.536C18.1787 11.9 18.3087 12.238 18.4907 12.524C18.8547 13.07 19.4007 13.46 19.9987 13.746C20.1287 13.798 20.2587 13.85 20.3887 13.902C19.7647 14.24 19.1927 14.604 18.6727 15.072C18.3087 15.384 17.9707 15.748 17.7367 16.164C17.4767 16.606 17.2947 17.074 17.2687 17.568C17.2427 18.322 17.5287 19.076 17.9967 19.648C18.6727 20.48 19.7127 21 20.7787 21.13L23.5087 19.154L25.5107 21.13L29.1247 18.66L28.9947 18.14ZM23.4047 14.11C22.9107 14.006 22.4427 13.876 22.0007 13.72C21.5067 13.564 21.0127 13.408 20.5447 13.174C20.0767 12.966 19.6087 12.68 19.2967 12.264C19.0627 12.004 18.9067 11.666 18.9067 11.302C18.9067 11.042 18.9587 10.782 19.0887 10.548C19.2187 10.34 19.4007 10.132 19.6087 9.97599C19.7647 9.84599 19.9467 9.76799 20.1547 9.66399L23.4047 11.666C23.4047 12.472 23.4047 13.304 23.4047 14.11ZM23.4047 14.864C23.4047 16.19 23.4047 17.49 23.4047 18.816C23.1187 18.92 22.8067 18.92 22.5207 18.868C22.1567 18.816 21.8187 18.608 21.5327 18.374C21.2467 18.114 21.0387 17.828 20.8567 17.49C20.4927 16.788 20.3107 15.956 20.4407 15.176C20.4927 14.786 20.6487 14.422 20.8307 14.084C21.1687 14.188 21.5067 14.292 21.8447 14.396C22.3647 14.552 22.8847 14.708 23.4047 14.864Z" fill="#112233"/>
<path d="M38.1528 7.73999H37.4248C37.4248 7.76599 37.4248 7.76599 37.4248 7.76599V7.73999C37.3728 8.07799 37.2168 8.36399 36.9568 8.57199C36.7228 8.72799 36.4368 8.83199 36.1508 8.83199C35.8388 8.83199 35.5528 8.75399 35.2928 8.64999C34.8508 8.44199 34.4868 8.10399 34.2268 7.68799L28.8448 10.808V14.448L30.8208 16.008C30.5868 16.216 30.3788 16.424 30.1708 16.632C29.4688 17.334 28.7928 18.088 28.4808 19.024C28.2988 19.674 28.2988 20.376 28.5588 21C28.8188 21.624 29.3388 22.118 29.9628 22.378L30.2228 21.676C30.0668 21.598 29.9628 21.468 29.8848 21.312C29.8328 21.13 29.8328 20.922 29.9108 20.74C29.9628 20.558 30.0928 20.402 30.2488 20.298C30.4828 20.142 30.7428 20.064 31.0288 20.064C31.2888 20.038 31.5488 20.116 31.8088 20.22C32.3028 20.402 32.7448 20.792 33.0048 21.26L38.1268 18.14V14.214L35.8908 12.576C36.1768 12.316 36.4368 12.056 36.6968 11.77C36.9828 11.38 37.2428 10.964 37.4248 10.522C37.8408 9.66399 38.0748 8.70199 38.1528 7.73999ZM33.3428 14.76L34.7728 15.93V19.31C34.4608 18.582 33.8628 17.984 33.1608 17.646C32.6408 17.386 32.0688 17.282 31.4968 17.308C30.9248 17.36 30.3788 17.568 29.9368 17.906C30.1708 17.646 30.4308 17.386 30.6908 17.126C31.2368 16.606 31.8088 16.086 32.4068 15.566L33.3428 14.76ZM33.2648 13.876L32.1988 12.758V9.37799C32.4848 10.106 33.0828 10.73 33.8108 11.042C34.3308 11.276 34.8768 11.354 35.4228 11.276C35.7348 11.224 36.0468 11.146 36.3328 11.016C36.2548 11.12 36.1768 11.224 36.0988 11.328C35.8388 11.666 35.5008 11.952 35.1888 12.212L33.2648 13.876Z" fill="#112233"/>
<path d="M45.0111 18.036L43.8931 18.764L43.0091 17.906V10.054L41.0331 7.68799L37.5231 10.054L37.9131 10.548L38.9011 9.92399L39.7851 11.042V17.906L38.1471 19.024L38.5371 19.518L39.3951 18.894L41.8911 21.13L45.6351 18.53L45.0111 18.036ZM38.9531 4.17799L41.1631 6.69999L43.6331 4.51599L41.4231 1.99399L38.9531 4.17799Z" fill="#112233"/>
<path d="M48.9005 17.022V9.55999L51.8905 11.536V19.024L48.9005 17.022ZM44.6625 19.258L45.7545 18.374C46.9505 19.258 48.1725 20.142 49.3945 21.026L55.1405 17.516V10.418L51.3965 7.55799L45.5465 10.912C45.5465 13.148 45.5465 15.384 45.5465 17.62L44.2205 18.686L44.6625 19.258Z" fill="#112233"/>
<path d="M68.6262 18.036L67.6122 18.764L66.4942 17.776V10.99L67.7682 9.94999L67.3002 9.40399L66.2082 10.288L63.2442 7.76599L60.4102 10.002L58.4082 7.76599L54.7942 10.236L55.1582 10.756L56.1462 10.132L57.1602 11.25V18.14L56.1462 19.024L59.1362 21.39L61.6322 19.154L60.5142 18.14V11.016L61.6322 10.132L63.5042 11.744V18.14L62.6202 19.024L65.2462 21.39L69.1202 18.764L68.6262 18.036Z" fill="#112233"/>
<path d="M77.5862 7.29799L77.8462 6.93399C77.5862 6.80399 77.3783 6.59599 77.2742 6.33599C77.1702 6.04999 77.1702 5.76399 77.2742 5.50399C77.3783 5.26999 77.5342 5.06199 77.7162 4.93199C77.9242 4.77599 78.1322 4.67199 78.3922 4.61999C78.8602 4.51599 79.3542 4.56799 79.8222 4.67199C80.9922 4.90599 82.1362 5.24399 83.3062 5.52999C84.4502 5.78999 85.5942 6.12799 86.7642 6.28399C86.8682 6.30999 86.9982 6.33599 87.1022 6.33599V9.53399L85.4122 11.25L87.1022 12.966V17.36C86.4522 17.698 85.7242 17.932 84.9702 18.01C83.7222 18.166 82.4222 17.932 81.3302 17.308C80.8882 17.074 80.4722 16.762 80.1082 16.398L84.6842 14.474V6.56999L78.9642 9.01399C79.5362 7.76599 80.4463 6.69999 81.5902 5.94599L81.3302 5.55599C79.8482 5.81599 78.4702 6.51799 77.4042 7.55799C76.3382 8.62399 75.6103 10.002 75.3242 11.484C74.8822 13.85 75.6622 16.398 77.3002 18.192C78.9382 19.986 81.3822 21 83.8002 20.922C85.1263 20.87 86.4262 20.506 87.5702 19.83C88.7142 19.154 89.6502 18.166 90.2742 16.996C90.8202 15.93 91.1062 14.734 91.0542 13.538H90.5602C90.0922 14.708 89.3382 15.748 88.3762 16.554C88.1942 16.684 88.0382 16.814 87.8302 16.944V12.992L89.5723 11.25L87.8302 9.50799V6.38799C88.0642 6.38799 88.2982 6.36199 88.5062 6.33599C89.1042 6.28399 89.6762 6.07599 90.1442 5.76399C90.7162 5.37399 91.1322 4.82799 91.3142 4.17799C91.4702 3.52799 91.3923 2.82599 91.0802 2.25399C90.7942 1.70799 90.3262 1.26599 89.7803 0.97999C89.2602 0.693991 88.6362 0.537989 88.0382 0.45999C87.7262 0.433991 87.3882 0.433991 87.0502 0.45999V0.95399C87.3363 0.97999 87.6222 1.03199 87.9082 1.08399C88.1943 1.16199 88.4542 1.23999 88.6882 1.42199C88.7923 1.49999 88.8962 1.62999 88.9743 1.75999C89.0263 1.86399 89.0522 2.01999 89.0522 2.14999C89.0262 2.30599 88.9743 2.40999 88.8962 2.53999C88.8183 2.64399 88.7142 2.72199 88.6102 2.79999C88.3762 2.90399 88.0902 2.92999 87.8302 2.92999C87.0502 2.90399 86.2962 2.66999 85.5422 2.48799C84.5542 2.27999 83.5922 1.91599 82.6562 1.60399C82.0062 1.39599 81.3562 1.21399 80.6802 1.10999C80.0042 1.03199 79.3282 1.05799 78.6782 1.21399C78.0802 1.36999 77.5082 1.65599 77.0402 2.04599C76.5722 2.43599 76.2082 2.95599 76.0002 3.52799C75.7402 4.22999 75.7662 5.03599 76.0522 5.73799C76.3382 6.43999 76.9102 7.01199 77.5862 7.29799ZM78.6262 9.89799L81.3302 8.75399V15.124L79.6143 15.852C79.1982 15.306 78.8602 14.682 78.6262 14.032C78.1842 12.706 78.2102 11.224 78.6262 9.89799Z" fill="#112233"/>
<path d="M97.8337 18.036L96.7157 18.764L95.8317 17.906V10.054L93.8557 7.68799L90.3457 10.054L90.7357 10.548L91.7237 9.92399L92.6077 11.042V17.906L90.9697 19.024L91.3597 19.518L92.2177 18.894L94.7137 21.13L98.4577 18.53L97.8337 18.036ZM91.7757 4.17799L93.9857 6.69999L96.4557 4.51599L94.2457 1.99399L91.7757 4.17799Z" fill="#112233"/>
<path d="M109.783 19.076L108.431 17.88V10.938L109.809 10.106L111.603 11.744V18.14L110.511 19.154L113.085 21.39L116.933 18.894V17.932L115.815 18.764L114.593 17.542V11.016L115.893 9.94999L115.425 9.40399L114.567 10.08L111.863 7.76599L108.301 9.97599L105.701 7.76599L102.295 9.89799L100.397 7.76599L96.7832 10.236L97.1472 10.756L98.1352 10.132L99.1492 11.25V18.14L98.1352 19.024L101.125 21.39L103.621 19.154L102.503 18.14V10.782L103.647 10.106L105.441 11.744V18.14L104.349 19.154L106.923 21.39L109.783 19.076Z" fill="#112233"/>
<path d="M116.16 19.336L117.304 18.4L121.178 21.26L126.534 16.918L126.144 16.294L123.284 18.53L120.164 16.398V15.28L125.78 11.796V11.666L123.154 7.68799L116.94 10.912V17.776L115.692 18.764L116.16 19.336ZM120.164 14.656V9.94999L120.658 9.66399L122.92 12.914L120.164 14.656Z" fill="#112233"/>
<path d="M135.224 7.73999H134.496C134.496 7.76599 134.496 7.76599 134.496 7.76599V7.73999C134.444 8.07799 134.288 8.36399 134.028 8.57199C133.794 8.72799 133.508 8.83199 133.222 8.83199C132.91 8.83199 132.624 8.75399 132.364 8.64999C131.922 8.44199 131.558 8.10399 131.298 7.68799L125.916 10.808V14.448L127.892 16.008C127.658 16.216 127.45 16.424 127.242 16.632C126.54 17.334 125.864 18.088 125.552 19.024C125.37 19.674 125.37 20.376 125.63 21C125.89 21.624 126.41 22.118 127.034 22.378L127.294 21.676C127.138 21.598 127.034 21.468 126.956 21.312C126.904 21.13 126.904 20.922 126.982 20.74C127.034 20.558 127.164 20.402 127.32 20.298C127.554 20.142 127.814 20.064 128.1 20.064C128.36 20.038 128.62 20.116 128.88 20.22C129.374 20.402 129.816 20.792 130.076 21.26L135.198 18.14V14.214L132.962 12.576C133.248 12.316 133.508 12.056 133.768 11.77C134.054 11.38 134.314 10.964 134.496 10.522C134.912 9.66399 135.146 8.70199 135.224 7.73999ZM130.414 14.76L131.844 15.93V19.31C131.532 18.582 130.934 17.984 130.232 17.646C129.712 17.386 129.14 17.282 128.568 17.308C127.996 17.36 127.45 17.568 127.008 17.906C127.242 17.646 127.502 17.386 127.762 17.126C128.308 16.606 128.88 16.086 129.478 15.566L130.414 14.76ZM130.336 13.876L129.27 12.758V9.37799C129.556 10.106 130.154 10.73 130.882 11.042C131.402 11.276 131.948 11.354 132.494 11.276C132.806 11.224 133.118 11.146 133.404 11.016C133.326 11.12 133.248 11.224 133.17 11.328C132.91 11.666 132.572 11.952 132.26 12.212L130.336 13.876Z" fill="#112233"/>
</svg>
